<svg xmlns="http://www.w3.org/2000/svg" height="800" width="1200" viewBox="-53.1612 -35.717 460.7304 214.302"><g fill="#ffffff"><path d="M29.822 10.4c0 5.042-4.553 9.13-10.17 9.13-5.614 0-10.168-4.088-10.168-9.13 0-5.04 4.554-9.128 10.169-9.128 5.616 0 10.169 4.087 10.169 9.129M4.854 33.28l6.24-9.705s8.781 6.816 11.44 9.128c2.657 2.312 7.396 6.24 7.28 12.595-.117 6.355-1.965 11.903-3.468 15.717-1.501 3.812-11.323 23.918-11.323 23.918L0 75.573S14.447 62.21 19.991 54.081c1.734-2.543 3.813-9.244-2.08-12.711-5.894-3.467-13.057-8.09-13.057-8.09"/><path d="M24.151 27.503S32.355 22.188 40.445 0c2.31.809 13.981 3.929 13.981 3.929l-3.814 7.049s17.45-5.315 32.472-5.315c0 0 8.205-.347 14.561 1.733 6.355 2.08 12.827 6.357 14.445 13.289 1.617 6.932 3.35 30.045.115 50.959 0 0-.694 4.855-5.2 9.13s-9.938 6.355-19.529 6.355S72.8 85.28 72.8 85.28l1.965-8.09s5.894 2.196 10.515 2.196c4.623 0 8.551-1.963 10.631-4.39 0 0 1.85-2.773 1.965-5.085.115-2.31.232-46.683-.231-48.186-.462-1.502-1.04-7.165-8.205-8.551-7.164-1.386-12.826-.463-14.56-.115-1.732.346-12.595 3.004-18.026 5.199 2.08.693 6.125 1.733 6.125 1.733s-1.849 3.814-5.2 7.512c4.622-.115 35.359 0 35.359 0v6.933h-19.76v9.244h19.53v6.934h-19.53v14.675s3.236 0 7.973-3.698c-.346-2.542-.231-2.89-1.386-6.587 3.005-.693 9.014-2.773 9.014-2.773l7.511 18.605-11.21 4.39-2.08-7.511s-3.35 3.814-11.555 6.241c-11.424 3.379-18.719 3.235-20.684 3.12 0 0-5.546.23-8.897-1.272-3.353-1.501-8.205-4.968-8.205-14.906 0-3.35.809-6.124.809-6.124l14.097.115s-.692 4.97-.692 6.24c0 1.271-1.042 6.702 9.127 6.586 0-7.279-.115-17.217-.115-17.217l-20.106-.115v-6.934H56.97v-8.783h-5.085s-5.546 5.202-8.666 8.322l-5.778-5.085S44.11 30.97 48.65 20.916c-2.657 1.04-7.28 3.12-7.28 3.12s-3.236 4.16-7.28 8.435c-2.889-1.617-9.939-4.968-9.939-4.968m121.795-6.009l-.115 6.588h64.827s7.047-4.276 7.047-8.436-5.43-5.315-9.129-5.547c-3.697-.231-14.097-.346-22.648.694-8.55 1.04-28.195 3.35-39.982 6.701m-16.062 15.947V9.13h15.831v3.582s22.649-3.12 25.075-3.12v-8.09h17.911v6.125s11.44-1.04 18.952-1.04c7.51 0 16.29 1.27 19.643 2.426 3.353 1.157 7.397 4.045 7.397 10.054s-4.508 12.249-13.52 18.258a264.521 264.521 0 00-4.853-4.738l.115 2.658h-27.501v9.36h31.545V52h-31.545v22.07h42.87v9.13H129.769v-9.13h40.675V52.23h-28.08v-7.625h28.195V35.36h-24.613v2.08h-16.062z"/><path d="M219.1 63.21c0 4.977-4.502 9.012-10.053 9.012-5.551 0-10.053-4.035-10.053-9.012 0-4.978 4.502-9.013 10.053-9.013 5.551 0 10.052 4.035 10.052 9.013m59.504-21.954c-4.16-6.24-10.054-10.17-10.054-10.17s3.12-3.467 4.739-6.124a529.229 529.229 0 0110.746 7.626c3.35-5.661 7.741-15.599 7.741-15.599l12.944 6.472c-1.04 3.35-1.966 4.506-1.966 4.506s6.817 4.506 10.978 7.165c4.738-9.014 6.818-19.529 6.818-19.529l14.214 8.666s0-5.316-.232-7.51c-.23-7.743-8.666-8.667-13.173-8.552-4.507.115-14.446 1.964-25.653 4.391-11.209 2.426-28.89 10.284-28.89 10.284v29.467c6.24-3.813 8.668-6.818 11.788-11.093M266.93 55.469v27.618h-17.795V6.127h17.68v6.702s17.218-6.586 28.89-9.013c11.67-2.426 18.372-2.426 21.145-2.426 2.773 0 14.214 1.27 20.684 3.697 6.471 2.426 11.094 7.28 12.943 12.48 1.848 5.2 1.963 19.412 1.963 26 0 6.586-.46 26.807-1.155 30.736-.692 3.93-2.312 8.436-5.779 10.979-3.464 2.542-8.435 1.964-12.94 1.04-4.508-.925-9.823-2.889-14.33-5.315v-7.628s4.39 3.12 8.782 3.12 7.86-2.657 7.86-8.55c0-5.893.575-31.2.113-41.6-2.887 4.622-8.897 12.825-11.555 15.83 3.582 2.543 7.86 6.473 10.4 9.477-3.35 3.003-12.363 10.4-12.363 10.4s-5.317-8.09-6.588-9.592c-1.386 1.618-9.937 11.093-23.341 18.95-2.311-3.35-5.548-7.51-5.548-7.51s10.054-3.466 22.303-19.76c-2.658-2.773-6.586-7.858-10.053-10.168-1.387 1.965-5.432 6.24-5.432 6.24s3.699 2.772 6.356 7.626c-2.311 2.311-9.475 9.707-9.475 9.707l-5.779-8.897s-6.355 6.701-12.248 10.976c-2.888-2.772-4.738-4.159-4.738-4.159M7.63 109.333s1.722-6.28 8.46-6.027c6.738.252 11.702.607 15.603.607 3.9 0 12.765-.86 13.728-1.216-.456 1.874-2.583 5.471-5.724 5.471h-7.144s-1.67-.05-1.67 2.026v24.772s.455 3.395 3.748 2.583c-1.064 2.888-3.8 4.56-6.991 4.56-3.19 0-6.332-2.027-6.332-4.813v-27.507c0-1.418-.202-1.773-2.736-1.875-1.519-.06-4.447-.203-6.99.102-1.641.196-2.937.8-3.951 1.317m47.872 14.843c-3.19 0-5.775 3.04-5.775 6.788 0 3.749 2.585 6.788 5.775 6.788 3.19 0 5.775-3.039 5.775-6.788 0-3.748-2.585-6.788-5.775-6.788m-12.056-8.308c.3-1.046.861-2.836 3.09-4.104 2.47-1.405 6.129-1.468 7.446-1.468 1.318 0 5.473.254 6.738.608 1.266.354 8.51 1.47 8.51 9.423v14.994s.305 3.14 3.496 2.127c-.456 3.09-3.496 4.661-5.674 4.661-2.178 0-5.723-1.318-5.723-4.002 0 0-1.42 4.507-9.018 4.457-7.599-.05-11.703-4.61-11.703-11.397 0-6.789 4.914-11.499 12.16-11.499 2.43 0 6.737.963 8.56 3.85.017-3.545-.638-8.37-6.088-8.876-2.799-.179-8.398-.059-11.794 1.226m122.056 8.308c-3.19 0-5.775 3.04-5.775 6.788 0 3.749 2.585 6.788 5.775 6.788 3.19 0 5.775-3.039 5.775-6.788 0-3.748-2.585-6.788-5.775-6.788m-12.056-8.308c.3-1.046.861-2.836 3.09-4.104 2.47-1.405 6.129-1.468 7.446-1.468 1.318 0 5.473.254 6.738.608 1.266.354 8.51 1.47 8.51 9.423v14.994s.305 3.14 3.495 2.127c-.455 3.09-3.495 4.661-5.673 4.661s-5.723-1.318-5.723-4.002c0 0-1.42 4.507-9.018 4.457-7.599-.05-11.702-4.61-11.702-11.397 0-6.789 4.913-11.499 12.158-11.499 2.432 0 6.738.963 8.562 3.85.016-3.545-.64-8.37-6.09-8.876-2.798-.179-8.397-.059-11.793 1.226m-61.672-.76c-3.441 0-6.23 5.103-6.23 11.398s2.789 11.397 6.23 11.397c3.441 0 6.23-5.102 6.23-11.397s-2.789-11.398-6.23-11.398m15.805 11.398c0 9.037-7.076 16.362-15.805 16.362s-15.805-7.325-15.805-16.362c0-9.037 7.076-16.363 15.805-16.363s15.805 7.326 15.805 16.363m93.883-11.398c-3.442 0-6.23 5.103-6.23 11.398s2.788 11.397 6.23 11.397c3.44 0 6.23-5.102 6.23-11.397s-2.79-11.398-6.23-11.398m15.805 11.398c0 9.037-7.077 16.362-15.805 16.362-8.73 0-15.805-7.325-15.805-16.362 0-9.037 7.076-16.363 15.805-16.363 8.728 0 15.805 7.326 15.805 16.363m65.445-11.398c-3.442 0-6.23 5.103-6.23 11.398s2.788 11.397 6.23 11.397c3.44 0 6.23-5.102 6.23-11.397s-2.79-11.398-6.23-11.398m15.805 11.398c0 9.037-7.077 16.362-15.805 16.362-8.73 0-15.805-7.325-15.805-16.362 0-9.037 7.076-16.363 15.805-16.363 8.728 0 15.805 7.326 15.805 16.363m-175.632-6.438c-.947 2.904-.443 10.861 0 12.377.442 1.517 2.084 5.305 6.315 5.305s5.684-4.167 5.999-5.557c.316-1.389.947-5.053-.189-11.368-1.136-6.313-5.936-5.808-5.936-5.808-3.474.063-5.241 2.147-6.189 5.05m-12.694-16.04s.632-4.672 6-4.672 6.442 3.41 6.442 4.294v10.483s2.273-3.41 9.22-3.41c6.946 0 13.323 4.927 13.323 14.21 0 0 1.454 17.365-13.702 17.365-4.926 0-7.768-1.642-9.22-4.042-.948 2.464-3.159 3.853-5.81 3.853-2.653 0-5.81-1.641-5.81-4.61 1.136.126 3.284.062 3.284-2.716v-28.543s-.253-2.211-3.727-2.211m119.982 34.038c0 2.406-1.98 4.356-4.42 4.356-2.442 0-4.42-1.95-4.42-4.356 0-2.406 1.978-4.356 4.42-4.356 2.44 0 4.42 1.95 4.42 4.356m32.27-.442s-1.579-1.704-3.031-1.641c-1.453.061-2.209.567-3.031.884-.822.315-2.59.946-4.17.946-1.577 0-4.482-.631-6.63-3.915-2.168-3.318-2.148-9.789-1.452-12.504.695-2.716 2.337-4.8 4.23-5.999 1.895-1.198 5.495-.757 6.76.253 1.262 1.01 1.83 2.904 4.167 2.904 2.336 0 3.66-2.778 3.283-4.673 0 0-3.788-3.091-11.618-3.157-7.327-.063-11.494 3.915-12.82 5.493-1.328 1.579-3.853 5.368-3.853 10.42 0 5.053 2.526 10.168 5.558 12.504 3.01 2.321 7.45 3.474 10.735 3.474 3.283 0 8.336-1.136 11.872-4.989m39.028-22.102s.695-4.736 6.125-4.736c4.484 0 5.684 3.347 5.684 3.347s2.78-3.664 8.589-3.664c5.81 0 8.464 2.78 9.536 4.232 1.894-1.832 3.853-4.168 9.157-4.168s9.788 1.833 10.293 7.136c.505 5.304.317 18.313.317 18.313s.44 2.526 3.22 1.452c.252 2.843-2.717 4.674-5.684 4.674-2.968 0-5.936-1.767-5.936-5.494V118.87s.065-4.105-4.8-4.105c-4.862 0-5.368 4.483-5.368 5.873v21.281h-8.651v-22.986s-.063-4.231-4.547-4.231c-4.483 0-5.683 3.726-5.683 5.557v21.471h-8.588v-23.555s.189-2.588-3.664-2.652"/></g></svg>
